<svg xmlns="http://www.w3.org/2000/svg" viewBox="0 0 100 100">
  <defs>
    <linearGradient id="bg" x1="0%" y1="0%" x2="100%" y2="100%">
      <stop offset="0%" style="stop-color:#3b82f6;stop-opacity:1" />
      <stop offset="100%" style="stop-color:#1d4ed8;stop-opacity:1" />
    </linearGradient>
  </defs>
  
  <!-- Background circle -->
  <circle cx="50" cy="50" r="48" fill="url(#bg)" stroke="#1e40af" stroke-width="2"/>
  
  <!-- Memorial candle flame -->
  <ellipse cx="50" cy="25" rx="8" ry="12" fill="#fbbf24" opacity="0.9"/>
  <ellipse cx="50" cy="28" rx="5" ry="8" fill="#f59e0b"/>
  
  <!-- Candle body -->
  <rect x="45" y="35" width="10" height="25" rx="2" fill="#f3f4f6"/>
  
  <!-- Heart symbol -->
  <path d="M35 65 C35 60, 40 55, 45 55 C47 55, 50 57, 50 60 C50 57, 53 55, 55 55 C60 55, 65 60, 65 65 C65 70, 50 80, 50 80 C50 80, 35 70, 35 65 Z" fill="#dc2626" opacity="0.8"/>
  
  <!-- Small decorative dots -->
  <circle cx="30" cy="45" r="2" fill="#e5e7eb" opacity="0.6"/>
  <circle cx="70" cy="45" r="2" fill="#e5e7eb" opacity="0.6"/>
  <circle cx="35" cy="35" r="1.5" fill="#e5e7eb" opacity="0.4"/>
  <circle cx="65" cy="35" r="1.5" fill="#e5e7eb" opacity="0.4"/>
</svg>